solid pin
facet normal 0.0 0.0 1.0
  outer loop
    vertex -0.2942999999999999 -1.9605042507237807 15.0
    vertex -0.3943000000000001 1.9473390009650424 15.0
    vertex -0.3943000000000001 -1.947339000965041 15.0
  endloop
endfacet
facet normal 0.0 0.0 1.0
  outer loop
    vertex -0.3943000000000001 1.9473390009650424 15.0
    vertex -0.2942999999999999 -1.9605042507237807 15.0
    vertex -0.2942999999999999 1.9605042507237813 15.0
  endloop
endfacet
facet normal 0.0 0.0 1.0
  outer loop
    vertex -0.2942999999999999 1.9605042507237813 15.0
    vertex -0.2942999999999999 -1.9605042507237807 15.0
    vertex 0.005699999999999544 -1.9999999999999991 15.0
  endloop
endfacet
facet normal 0.0 0.0 1.0
  outer loop
    vertex -0.2942999999999999 1.9605042507237813 15.0
    vertex 0.005699999999999544 -1.9999999999999991 15.0
    vertex 0.005699999999999896 2.0000000000000004 15.0
  endloop
endfacet
facet normal 0.0 0.0 1.0
  outer loop
    vertex 0.005699999999999896 2.0000000000000004 15.0
    vertex 0.005699999999999544 -1.9999999999999991 15.0
    vertex 0.3056999999999997 -1.9605042507237807 15.0
  endloop
endfacet
facet normal 0.0 0.0 1.0
  outer loop
    vertex 0.005699999999999896 2.0000000000000004 15.0
    vertex 0.3056999999999997 -1.9605042507237807 15.0
    vertex 0.3056999999999997 1.9605042507237813 15.0
  endloop
endfacet
facet normal 0.0 0.0 1.0
  outer loop
    vertex 0.3056999999999997 1.9605042507237813 15.0
    vertex 0.3056999999999997 -1.9605042507237807 15.0
    vertex 0.4056999999999999 -1.947339000965041 15.0
  endloop
endfacet
facet normal 0.0 0.0 1.0
  outer loop
    vertex 0.3056999999999997 1.9605042507237813 15.0
    vertex 0.4056999999999999 -1.947339000965041 15.0
    vertex 0.4056999999999999 1.9473390009650418 15.0
  endloop
endfacet
facet normal 1.0 0.0 -1.484659317222254e-15
  outer loop
    vertex 0.40570000000000866 1.947339000965041 12.199999999999996
    vertex 0.4056999999999999 -1.947339000965041 15.0
    vertex 0.40570000000000866 -1.9473390009650413 12.199999999999996
  endloop
endfacet
facet normal 1.0 0.0 -1.484659317222254e-15
  outer loop
    vertex 0.4056999999999999 -1.947339000965041 15.0
    vertex 0.40570000000000866 1.947339000965041 12.199999999999996
    vertex 0.4056999999999999 1.9473390009650418 15.0
  endloop
endfacet
facet normal 0.9914448613738104 -0.13052619222005202 0.0
  outer loop
    vertex 1.937551652578135 -0.5176380902050424 0.0
    vertex 2.0056999999999845 3.524958103184872e-16 4.999999999999998
    vertex 1.9375516525781211 -0.5176380902050429 4.999999999999998
  endloop
endfacet
facet normal 0.9914448613738104 -0.13052619222005202 0.0
  outer loop
    vertex 2.0056999999999845 3.524958103184872e-16 4.999999999999998
    vertex 1.937551652578135 -0.5176380902050424 0.0
    vertex 2.0056999999999996 7.049916206369744e-16 0.0
  endloop
endfacet
facet normal -0.9914448613738106 -0.13052619222005124 -0.0
  outer loop
    vertex -1.9942999999999995 1.0574874309554614e-15 12.200000000000001
    vertex -1.9261516525781364 -0.5176380902050399 0.0
    vertex -1.9261516525781364 -0.5176380902050399 12.200000000000001
  endloop
endfacet
facet normal -0.9914448613738106 -0.13052619222005124 -0.0
  outer loop
    vertex -1.9261516525781364 -0.5176380902050399 0.0
    vertex -1.9942999999999995 1.0574874309554614e-15 12.200000000000001
    vertex -1.9942999999999995 1.0574874309554614e-15 0.0
  endloop
endfacet
facet normal 0.13052619222005188 0.9914448613738105 9.061867191665957e-18
  outer loop
    vertex 0.005699999999999896 2.0000000000000004 15.0
    vertex 0.5233380902050415 1.931851652578137 0.0
    vertex 0.005699999999999896 2.0000000000000004 0.0
  endloop
endfacet
facet normal 0.13052619222005188 0.9914448613738105 9.061867191665957e-18
  outer loop
    vertex 0.5233380902050415 1.931851652578137 0.0
    vertex 0.005699999999999896 2.0000000000000004 15.0
    vertex 0.40570000000000866 1.947339000965041 12.199999999999996
  endloop
endfacet
facet normal 0.13052619222005188 0.9914448613738105 9.061867191665957e-18
  outer loop
    vertex 0.5233380902050415 1.931851652578137 0.0
    vertex 0.40570000000000866 1.947339000965041 12.199999999999996
    vertex 0.5233380902050507 1.931851652578137 12.199999999999994
  endloop
endfacet
facet normal 0.13052619222005188 0.9914448613738105 9.061867191665957e-18
  outer loop
    vertex 0.40570000000000866 1.947339000965041 12.199999999999996
    vertex 0.005699999999999896 2.0000000000000004 15.0
    vertex 0.4056999999999999 1.9473390009650418 15.0
  endloop
endfacet
facet normal 0.13052619222005188 0.9914448613738105 9.061867191665957e-18
  outer loop
    vertex 0.4056999999999999 1.9473390009650418 15.0
    vertex 0.005699999999999896 2.0000000000000004 15.0
    vertex 0.3056999999999997 1.9605042507237813 15.0
  endloop
endfacet
facet normal -0.9238795325112867 0.3826834323650899 0.0
  outer loop
    vertex -1.7263508075688767 1.0000000000000013 12.200000000000001
    vertex -1.9261516525781361 0.5176380902050427 0.0
    vertex -1.9261516525781361 0.5176380902050427 12.200000000000001
  endloop
endfacet
facet normal -0.9238795325112867 0.3826834323650899 0.0
  outer loop
    vertex -1.9261516525781361 0.5176380902050427 0.0
    vertex -1.7263508075688767 1.0000000000000013 12.200000000000001
    vertex -1.7263508075688767 1.0000000000000013 0.0
  endloop
endfacet
facet normal -0.38268343236508967 0.9238795325112867 0.0
  outer loop
    vertex -0.9942999999999993 1.7320508075688783 12.200000000000001
    vertex -0.5119380902050412 1.931851652578137 0.0
    vertex -0.9942999999999993 1.7320508075688783 0.0
  endloop
endfacet
facet normal -0.38268343236508967 0.9238795325112867 0.0
  outer loop
    vertex -0.5119380902050412 1.931851652578137 0.0
    vertex -0.9942999999999993 1.7320508075688783 12.200000000000001
    vertex -0.5119380902050412 1.931851652578137 12.200000000000001
  endloop
endfacet
facet normal 0.6087614290087342 0.7933533402912247 1.529127464144924e-16
  outer loop
    vertex 1.0057000000000094 1.732050807568877 12.199999999999994
    vertex 1.4199135623730945 1.4142135623730958 0.0
    vertex 1.0056999999999998 1.7320508075688776 0.0
  endloop
endfacet
facet normal 0.6087614290087342 0.7933533402912247 1.529127464144924e-16
  outer loop
    vertex 1.4199135623730945 1.4142135623730958 0.0
    vertex 1.0057000000000094 1.732050807568877 12.199999999999994
    vertex 1.4199135623730799 1.4142135623730951 4.999999999999998
  endloop
endfacet
facet normal 0.6087614290087342 0.7933533402912247 1.529127464144924e-16
  outer loop
    vertex 1.4199135623730799 1.4142135623730951 4.999999999999998
    vertex 1.0057000000000094 1.732050807568877 12.199999999999994
    vertex 1.4199135623730799 1.4142135623730951 12.199999999999992
  endloop
endfacet
facet normal 0.9238795325112865 -0.3826834323650905 0.0
  outer loop
    vertex 1.7377508075688766 -1.0 0.0
    vertex 1.9375516525781211 -0.5176380902050429 4.999999999999998
    vertex 1.737750807568861 -1.0000000000000007 4.999999999999998
  endloop
endfacet
facet normal 0.9238795325112865 -0.3826834323650905 0.0
  outer loop
    vertex 1.9375516525781211 -0.5176380902050429 4.999999999999998
    vertex 1.7377508075688766 -1.0 0.0
    vertex 1.937551652578135 -0.5176380902050424 0.0
  endloop
endfacet
facet normal -0.3826834323650905 -0.9238795325112865 -0.0
  outer loop
    vertex -0.511938090205043 -1.9318516525781353 12.200000000000001
    vertex -0.9943000000000007 -1.7320508075688759 0.0
    vertex -0.511938090205043 -1.9318516525781353 0.0
  endloop
endfacet
facet normal -0.3826834323650905 -0.9238795325112865 -0.0
  outer loop
    vertex -0.9943000000000007 -1.7320508075688759 0.0
    vertex -0.511938090205043 -1.9318516525781353 12.200000000000001
    vertex -0.9943000000000007 -1.7320508075688759 12.200000000000001
  endloop
endfacet
facet normal 0.1305261922200512 -0.9914448613738105 -4.624648489626822e-18
  outer loop
    vertex 0.5233380902050493 -1.9318516525781364 12.199999999999994
    vertex 0.005699999999999544 -1.9999999999999991 0.0
    vertex 0.5233380902050402 -1.931851652578136 0.0
  endloop
endfacet
facet normal 0.1305261922200512 -0.9914448613738105 -4.624648489626822e-18
  outer loop
    vertex 0.005699999999999544 -1.9999999999999991 0.0
    vertex 0.5233380902050493 -1.9318516525781364 12.199999999999994
    vertex 0.005699999999999544 -1.9999999999999991 12.200000000000001
  endloop
endfacet
facet normal 0.1305261922200512 -0.9914448613738105 -4.624648489626822e-18
  outer loop
    vertex 0.005699999999999544 -1.9999999999999991 12.200000000000001
    vertex 0.5233380902050493 -1.9318516525781364 12.199999999999994
    vertex 0.40570000000000866 -1.9473390009650413 12.199999999999996
  endloop
endfacet
facet normal 0.1305261922200512 -0.9914448613738105 -4.624648489626822e-18
  outer loop
    vertex 0.005699999999999544 -1.9999999999999991 12.200000000000001
    vertex 0.40570000000000866 -1.9473390009650413 12.199999999999996
    vertex 0.4056999999999999 -1.947339000965041 15.0
  endloop
endfacet
facet normal 0.1305261922200512 -0.9914448613738105 -4.624648489626822e-18
  outer loop
    vertex 0.005699999999999544 -1.9999999999999991 12.200000000000001
    vertex 0.4056999999999999 -1.947339000965041 15.0
    vertex 0.005699999999999544 -1.9999999999999991 15.0
  endloop
endfacet
facet normal 0.1305261922200512 -0.9914448613738105 -4.624648489626822e-18
  outer loop
    vertex 0.005699999999999544 -1.9999999999999991 15.0
    vertex 0.4056999999999999 -1.947339000965041 15.0
    vertex 0.3056999999999997 -1.9605042507237807 15.0
  endloop
endfacet
facet normal 0.7933533402912354 0.6087614290087203 0.0
  outer loop
    vertex 1.7377508075688766 1.0000000000000002 0.0
    vertex 1.4199135623730799 1.4142135623730951 4.999999999999998
    vertex 1.7377508075688624 0.9999999999999999 4.999999999999998
  endloop
endfacet
facet normal 0.7933533402912354 0.6087614290087203 0.0
  outer loop
    vertex 1.4199135623730799 1.4142135623730951 4.999999999999998
    vertex 1.7377508075688766 1.0000000000000002 0.0
    vertex 1.4199135623730945 1.4142135623730958 0.0
  endloop
endfacet
facet normal -0.9914448613738104 0.13052619222005168 0.0
  outer loop
    vertex -1.9261516525781361 0.5176380902050427 12.200000000000001
    vertex -1.9942999999999995 1.0574874309554614e-15 0.0
    vertex -1.9942999999999995 1.0574874309554614e-15 12.200000000000001
  endloop
endfacet
facet normal -0.9914448613738104 0.13052619222005168 0.0
  outer loop
    vertex -1.9942999999999995 1.0574874309554614e-15 0.0
    vertex -1.9261516525781361 0.5176380902050427 12.200000000000001
    vertex -1.9261516525781361 0.5176380902050427 0.0
  endloop
endfacet
facet normal -0.6087614290087209 -0.7933533402912349 -0.0
  outer loop
    vertex -0.9943000000000007 -1.7320508075688759 12.200000000000001
    vertex -1.4085135623730958 -1.4142135623730934 0.0
    vertex -0.9943000000000007 -1.7320508075688759 0.0
  endloop
endfacet
facet normal -0.6087614290087209 -0.7933533402912349 -0.0
  outer loop
    vertex -1.4085135623730958 -1.4142135623730934 0.0
    vertex -0.9943000000000007 -1.7320508075688759 12.200000000000001
    vertex -1.4085135623730958 -1.4142135623730934 12.200000000000001
  endloop
endfacet
facet normal 0.9238795325112868 0.38268343236508956 0.0
  outer loop
    vertex 1.937551652578136 0.517638090205042 0.0
    vertex 1.7377508075688624 0.9999999999999999 4.999999999999998
    vertex 1.9375516525781211 0.5176380902050417 4.999999999999998
  endloop
endfacet
facet normal 0.9238795325112868 0.38268343236508956 0.0
  outer loop
    vertex 1.7377508075688624 0.9999999999999999 4.999999999999998
    vertex 1.937551652578136 0.517638090205042 0.0
    vertex 1.7377508075688766 1.0000000000000002 0.0
  endloop
endfacet
facet normal 0.793353340291235 -0.6087614290087208 0.0
  outer loop
    vertex 1.4199135623730939 -1.4142135623730945 0.0
    vertex 1.737750807568861 -1.0000000000000007 4.999999999999998
    vertex 1.4199135623730799 -1.4142135623730951 4.999999999999998
  endloop
endfacet
facet normal 0.793353340291235 -0.6087614290087208 0.0
  outer loop
    vertex 1.737750807568861 -1.0000000000000007 4.999999999999998
    vertex 1.4199135623730939 -1.4142135623730945 0.0
    vertex 1.7377508075688766 -1.0 0.0
  endloop
endfacet
facet normal 0.9914448613738104 0.13052619222005174 0.0
  outer loop
    vertex 2.0056999999999996 7.049916206369744e-16 0.0
    vertex 1.9375516525781211 0.5176380902050417 4.999999999999998
    vertex 2.0056999999999845 3.524958103184872e-16 4.999999999999998
  endloop
endfacet
facet normal 0.9914448613738104 0.13052619222005174 0.0
  outer loop
    vertex 1.9375516525781211 0.5176380902050417 4.999999999999998
    vertex 2.0056999999999996 7.049916206369744e-16 0.0
    vertex 1.937551652578136 0.517638090205042 0.0
  endloop
endfacet
facet normal 0.0 0.0 -1.0
  outer loop
    vertex -1.9261516525781361 0.5176380902050427 0.0
    vertex -1.9261516525781364 -0.5176380902050399 0.0
    vertex -1.9942999999999995 1.0574874309554614e-15 0.0
  endloop
endfacet
facet normal 0.0 0.0 -1.0
  outer loop
    vertex -1.9261516525781364 -0.5176380902050399 0.0
    vertex -1.9261516525781361 0.5176380902050427 0.0
    vertex -1.7263508075688774 -0.9999999999999987 0.0
  endloop
endfacet
facet normal 0.0 0.0 -1.0
  outer loop
    vertex -1.7263508075688774 -0.9999999999999987 0.0
    vertex -1.9261516525781361 0.5176380902050427 0.0
    vertex -1.7263508075688767 1.0000000000000013 0.0
  endloop
endfacet
facet normal 0.0 0.0 -1.0
  outer loop
    vertex -1.7263508075688774 -0.9999999999999987 0.0
    vertex -1.7263508075688767 1.0000000000000013 0.0
    vertex -1.4085135623730958 -1.4142135623730934 0.0
  endloop
endfacet
facet normal 0.0 0.0 -1.0
  outer loop
    vertex -1.4085135623730958 -1.4142135623730934 0.0
    vertex -1.7263508075688767 1.0000000000000013 0.0
    vertex -1.4085135623730949 1.4142135623730958 0.0
  endloop
endfacet
facet normal 0.0 0.0 -1.0
  outer loop
    vertex -1.4085135623730958 -1.4142135623730934 0.0
    vertex -1.4085135623730949 1.4142135623730958 0.0
    vertex -0.9943000000000007 -1.7320508075688759 0.0
  endloop
endfacet
facet normal 0.0 0.0 -1.0
  outer loop
    vertex -0.9943000000000007 -1.7320508075688759 0.0
    vertex -1.4085135623730949 1.4142135623730958 0.0
    vertex -0.9942999999999993 1.7320508075688783 0.0
  endloop
endfacet
facet normal 0.0 0.0 -1.0
  outer loop
    vertex -0.9943000000000007 -1.7320508075688759 0.0
    vertex -0.9942999999999993 1.7320508075688783 0.0
    vertex -0.511938090205043 -1.9318516525781353 0.0
  endloop
endfacet
facet normal 0.0 0.0 -1.0
  outer loop
    vertex -0.511938090205043 -1.9318516525781353 0.0
    vertex -0.9942999999999993 1.7320508075688783 0.0
    vertex -0.5119380902050412 1.931851652578137 0.0
  endloop
endfacet
facet normal 0.0 0.0 -1.0
  outer loop
    vertex -0.511938090205043 -1.9318516525781353 0.0
    vertex -0.5119380902050412 1.931851652578137 0.0
    vertex 0.005699999999999544 -1.9999999999999991 0.0
  endloop
endfacet
facet normal 0.0 0.0 -1.0
  outer loop
    vertex 0.005699999999999544 -1.9999999999999991 0.0
    vertex -0.5119380902050412 1.931851652578137 0.0
    vertex 0.005699999999999896 2.0000000000000004 0.0
  endloop
endfacet
facet normal 0.0 0.0 -1.0
  outer loop
    vertex 0.005699999999999544 -1.9999999999999991 0.0
    vertex 0.005699999999999896 2.0000000000000004 0.0
    vertex 0.5233380902050402 -1.931851652578136 0.0
  endloop
endfacet
facet normal 0.0 0.0 -1.0
  outer loop
    vertex 0.5233380902050402 -1.931851652578136 0.0
    vertex 0.005699999999999896 2.0000000000000004 0.0
    vertex 0.5233380902050415 1.931851652578137 0.0
  endloop
endfacet
facet normal 0.0 0.0 -1.0
  outer loop
    vertex 0.5233380902050402 -1.931851652578136 0.0
    vertex 0.5233380902050415 1.931851652578137 0.0
    vertex 1.0056999999999985 -1.7320508075688772 0.0
  endloop
endfacet
facet normal 0.0 0.0 -1.0
  outer loop
    vertex 1.0056999999999985 -1.7320508075688772 0.0
    vertex 0.5233380902050415 1.931851652578137 0.0
    vertex 1.0056999999999998 1.7320508075688776 0.0
  endloop
endfacet
facet normal 0.0 0.0 -1.0
  outer loop
    vertex 1.0056999999999985 -1.7320508075688772 0.0
    vertex 1.0056999999999998 1.7320508075688776 0.0
    vertex 1.4199135623730939 -1.4142135623730945 0.0
  endloop
endfacet
facet normal 0.0 0.0 -1.0
  outer loop
    vertex 1.4199135623730939 -1.4142135623730945 0.0
    vertex 1.0056999999999998 1.7320508075688776 0.0
    vertex 1.4199135623730945 1.4142135623730958 0.0
  endloop
endfacet
facet normal 0.0 0.0 -1.0
  outer loop
    vertex 1.4199135623730939 -1.4142135623730945 0.0
    vertex 1.4199135623730945 1.4142135623730958 0.0
    vertex 1.7377508075688766 -1.0 0.0
  endloop
endfacet
facet normal 0.0 0.0 -1.0
  outer loop
    vertex 1.7377508075688766 -1.0 0.0
    vertex 1.4199135623730945 1.4142135623730958 0.0
    vertex 1.7377508075688766 1.0000000000000002 0.0
  endloop
endfacet
facet normal 0.0 0.0 -1.0
  outer loop
    vertex 1.7377508075688766 -1.0 0.0
    vertex 1.7377508075688766 1.0000000000000002 0.0
    vertex 1.937551652578136 0.517638090205042 0.0
  endloop
endfacet
facet normal 0.0 0.0 -1.0
  outer loop
    vertex 1.7377508075688766 -1.0 0.0
    vertex 1.937551652578136 0.517638090205042 0.0
    vertex 1.937551652578135 -0.5176380902050424 0.0
  endloop
endfacet
facet normal 0.0 0.0 -1.0
  outer loop
    vertex 1.937551652578135 -0.5176380902050424 0.0
    vertex 1.937551652578136 0.517638090205042 0.0
    vertex 2.0056999999999996 7.049916206369744e-16 0.0
  endloop
endfacet
facet normal -0.7933533402912355 -0.6087614290087203 -0.0
  outer loop
    vertex -1.7263508075688774 -0.9999999999999987 12.200000000000001
    vertex -1.4085135623730958 -1.4142135623730934 0.0
    vertex -1.4085135623730958 -1.4142135623730934 12.200000000000001
  endloop
endfacet
facet normal -0.7933533402912355 -0.6087614290087203 -0.0
  outer loop
    vertex -1.4085135623730958 -1.4142135623730934 0.0
    vertex -1.7263508075688774 -0.9999999999999987 12.200000000000001
    vertex -1.7263508075688774 -0.9999999999999987 0.0
  endloop
endfacet
facet normal 3.1265223311754518e-15 -5.764405570927988e-31 1.0
  outer loop
    vertex 0.5233380902050493 -1.9318516525781364 12.199999999999994
    vertex 0.40570000000000866 1.947339000965041 12.199999999999996
    vertex 0.40570000000000866 -1.9473390009650413 12.199999999999996
  endloop
endfacet
facet normal 3.1265223311754518e-15 -5.764405570927988e-31 1.0
  outer loop
    vertex 0.40570000000000866 1.947339000965041 12.199999999999996
    vertex 0.5233380902050493 -1.9318516525781364 12.199999999999994
    vertex 0.5233380902050507 1.931851652578137 12.199999999999994
  endloop
endfacet
facet normal 3.1265223311754518e-15 -5.764405570927988e-31 1.0
  outer loop
    vertex 0.5233380902050507 1.931851652578137 12.199999999999994
    vertex 0.5233380902050493 -1.9318516525781364 12.199999999999994
    vertex 1.005700000000008 -1.7320508075688776 12.199999999999994
  endloop
endfacet
facet normal 3.1265223311754518e-15 -5.764405570927988e-31 1.0
  outer loop
    vertex 0.5233380902050507 1.931851652578137 12.199999999999994
    vertex 1.005700000000008 -1.7320508075688776 12.199999999999994
    vertex 1.0057000000000094 1.732050807568877 12.199999999999994
  endloop
endfacet
facet normal 3.1265223311754518e-15 -5.764405570927988e-31 1.0
  outer loop
    vertex 1.0057000000000094 1.732050807568877 12.199999999999994
    vertex 1.005700000000008 -1.7320508075688776 12.199999999999994
    vertex 1.4199135623730799 -1.4142135623730951 12.199999999999992
  endloop
endfacet
facet normal 3.1265223311754518e-15 -5.764405570927988e-31 1.0
  outer loop
    vertex 1.0057000000000094 1.732050807568877 12.199999999999994
    vertex 1.4199135623730799 -1.4142135623730951 12.199999999999992
    vertex 1.4199135623730799 1.4142135623730951 12.199999999999992
  endloop
endfacet
facet normal -0.793353340291235 0.6087614290087208 0.0
  outer loop
    vertex -1.4085135623730949 1.4142135623730958 12.200000000000001
    vertex -1.7263508075688767 1.0000000000000013 0.0
    vertex -1.7263508075688767 1.0000000000000013 12.200000000000001
  endloop
endfacet
facet normal -0.793353340291235 0.6087614290087208 0.0
  outer loop
    vertex -1.7263508075688767 1.0000000000000013 0.0
    vertex -1.4085135623730949 1.4142135623730958 12.200000000000001
    vertex -1.4085135623730949 1.4142135623730958 0.0
  endloop
endfacet
facet normal 0.6087614290087338 -0.7933533402912251 6.439924570703077e-17
  outer loop
    vertex 1.4199135623730799 -1.4142135623730951 4.999999999999998
    vertex 1.0056999999999985 -1.7320508075688772 0.0
    vertex 1.4199135623730939 -1.4142135623730945 0.0
  endloop
endfacet
facet normal 0.6087614290087338 -0.7933533402912251 6.439924570703077e-17
  outer loop
    vertex 1.0056999999999985 -1.7320508075688772 0.0
    vertex 1.4199135623730799 -1.4142135623730951 4.999999999999998
    vertex 1.005700000000008 -1.7320508075688776 12.199999999999994
  endloop
endfacet
facet normal 0.6087614290087338 -0.7933533402912251 6.439924570703077e-17
  outer loop
    vertex 1.005700000000008 -1.7320508075688776 12.199999999999994
    vertex 1.4199135623730799 -1.4142135623730951 4.999999999999998
    vertex 1.4199135623730799 -1.4142135623730951 12.199999999999992
  endloop
endfacet
facet normal 0.3826834323650907 0.9238795325112865 -2.6514845273322906e-16
  outer loop
    vertex 0.5233380902050507 1.931851652578137 12.199999999999994
    vertex 1.0056999999999998 1.7320508075688776 0.0
    vertex 0.5233380902050415 1.931851652578137 0.0
  endloop
endfacet
facet normal 0.3826834323650907 0.9238795325112865 -2.6514845273322906e-16
  outer loop
    vertex 1.0056999999999998 1.7320508075688776 0.0
    vertex 0.5233380902050507 1.931851652578137 12.199999999999994
    vertex 1.0057000000000094 1.732050807568877 12.199999999999994
  endloop
endfacet
facet normal -0.13052619222005168 0.9914448613738105 -3.9483849906544574e-18
  outer loop
    vertex -0.5119380902050412 1.931851652578137 12.200000000000001
    vertex 0.005699999999999896 2.0000000000000004 0.0
    vertex -0.5119380902050412 1.931851652578137 0.0
  endloop
endfacet
facet normal -0.13052619222005168 0.9914448613738105 -3.9483849906544574e-18
  outer loop
    vertex 0.005699999999999896 2.0000000000000004 0.0
    vertex -0.5119380902050412 1.931851652578137 12.200000000000001
    vertex -0.3943000000000001 1.9473390009650424 12.200000000000001
  endloop
endfacet
facet normal -0.13052619222005168 0.9914448613738105 -3.9483849906544574e-18
  outer loop
    vertex 0.005699999999999896 2.0000000000000004 0.0
    vertex -0.3943000000000001 1.9473390009650424 12.200000000000001
    vertex 0.005699999999999896 2.0000000000000004 15.0
  endloop
endfacet
facet normal -0.13052619222005168 0.9914448613738105 -3.9483849906544574e-18
  outer loop
    vertex 0.005699999999999896 2.0000000000000004 15.0
    vertex -0.3943000000000001 1.9473390009650424 12.200000000000001
    vertex -0.3943000000000001 1.9473390009650424 15.0
  endloop
endfacet
facet normal -0.13052619222005168 0.9914448613738105 -3.9483849906544574e-18
  outer loop
    vertex 0.005699999999999896 2.0000000000000004 15.0
    vertex -0.3943000000000001 1.9473390009650424 15.0
    vertex -0.2942999999999999 1.9605042507237813 15.0
  endloop
endfacet
facet normal -1.0 0.0 0.0
  outer loop
    vertex -0.3943000000000001 1.9473390009650424 15.0
    vertex -0.3943000000000001 -1.947339000965041 12.200000000000001
    vertex -0.3943000000000001 -1.947339000965041 15.0
  endloop
endfacet
facet normal -1.0 0.0 0.0
  outer loop
    vertex -0.3943000000000001 -1.947339000965041 12.200000000000001
    vertex -0.3943000000000001 1.9473390009650424 15.0
    vertex -0.3943000000000001 1.9473390009650424 12.200000000000001
  endloop
endfacet
facet normal 0.3826834323650889 -0.9238795325112871 -3.189872161258231e-16
  outer loop
    vertex 1.005700000000008 -1.7320508075688776 12.199999999999994
    vertex 0.5233380902050402 -1.931851652578136 0.0
    vertex 1.0056999999999985 -1.7320508075688772 0.0
  endloop
endfacet
facet normal 0.3826834323650889 -0.9238795325112871 -3.189872161258231e-16
  outer loop
    vertex 0.5233380902050402 -1.931851652578136 0.0
    vertex 1.005700000000008 -1.7320508075688776 12.199999999999994
    vertex 0.5233380902050493 -1.9318516525781364 12.199999999999994
  endloop
endfacet
facet normal -0.6087614290087202 0.7933533402912355 0.0
  outer loop
    vertex -1.4085135623730949 1.4142135623730958 12.200000000000001
    vertex -0.9942999999999993 1.7320508075688783 0.0
    vertex -1.4085135623730949 1.4142135623730958 0.0
  endloop
endfacet
facet normal -0.6087614290087202 0.7933533402912355 0.0
  outer loop
    vertex -0.9942999999999993 1.7320508075688783 0.0
    vertex -1.4085135623730949 1.4142135623730958 12.200000000000001
    vertex -0.9942999999999993 1.7320508075688783 12.200000000000001
  endloop
endfacet
facet normal 0.0 0.0 1.0
  outer loop
    vertex -1.9261516525781364 -0.5176380902050399 12.200000000000001
    vertex -1.9261516525781361 0.5176380902050427 12.200000000000001
    vertex -1.9942999999999995 1.0574874309554614e-15 12.200000000000001
  endloop
endfacet
facet normal 0.0 0.0 1.0
  outer loop
    vertex -1.9261516525781361 0.5176380902050427 12.200000000000001
    vertex -1.9261516525781364 -0.5176380902050399 12.200000000000001
    vertex -1.7263508075688774 -0.9999999999999987 12.200000000000001
  endloop
endfacet
facet normal 0.0 0.0 1.0
  outer loop
    vertex -1.9261516525781361 0.5176380902050427 12.200000000000001
    vertex -1.7263508075688774 -0.9999999999999987 12.200000000000001
    vertex -1.7263508075688767 1.0000000000000013 12.200000000000001
  endloop
endfacet
facet normal 0.0 0.0 1.0
  outer loop
    vertex -1.7263508075688767 1.0000000000000013 12.200000000000001
    vertex -1.7263508075688774 -0.9999999999999987 12.200000000000001
    vertex -1.4085135623730958 -1.4142135623730934 12.200000000000001
  endloop
endfacet
facet normal 0.0 0.0 1.0
  outer loop
    vertex -1.7263508075688767 1.0000000000000013 12.200000000000001
    vertex -1.4085135623730958 -1.4142135623730934 12.200000000000001
    vertex -1.4085135623730949 1.4142135623730958 12.200000000000001
  endloop
endfacet
facet normal 0.0 0.0 1.0
  outer loop
    vertex -1.4085135623730949 1.4142135623730958 12.200000000000001
    vertex -1.4085135623730958 -1.4142135623730934 12.200000000000001
    vertex -0.9943000000000007 -1.7320508075688759 12.200000000000001
  endloop
endfacet
facet normal 0.0 0.0 1.0
  outer loop
    vertex -1.4085135623730949 1.4142135623730958 12.200000000000001
    vertex -0.9943000000000007 -1.7320508075688759 12.200000000000001
    vertex -0.9942999999999993 1.7320508075688783 12.200000000000001
  endloop
endfacet
facet normal 0.0 0.0 1.0
  outer loop
    vertex -0.9942999999999993 1.7320508075688783 12.200000000000001
    vertex -0.9943000000000007 -1.7320508075688759 12.200000000000001
    vertex -0.511938090205043 -1.9318516525781353 12.200000000000001
  endloop
endfacet
facet normal 0.0 0.0 1.0
  outer loop
    vertex -0.9942999999999993 1.7320508075688783 12.200000000000001
    vertex -0.511938090205043 -1.9318516525781353 12.200000000000001
    vertex -0.5119380902050412 1.931851652578137 12.200000000000001
  endloop
endfacet
facet normal 0.0 0.0 1.0
  outer loop
    vertex -0.5119380902050412 1.931851652578137 12.200000000000001
    vertex -0.511938090205043 -1.9318516525781353 12.200000000000001
    vertex -0.3943000000000001 -1.947339000965041 12.200000000000001
  endloop
endfacet
facet normal 0.0 0.0 1.0
  outer loop
    vertex -0.5119380902050412 1.931851652578137 12.200000000000001
    vertex -0.3943000000000001 -1.947339000965041 12.200000000000001
    vertex -0.3943000000000001 1.9473390009650424 12.200000000000001
  endloop
endfacet
facet normal -0.130526192220052 -0.9914448613738105 -1.1498442966011992e-17
  outer loop
    vertex 0.005699999999999544 -1.9999999999999991 15.0
    vertex -0.3943000000000001 -1.947339000965041 12.200000000000001
    vertex 0.005699999999999544 -1.9999999999999991 12.200000000000001
  endloop
endfacet
facet normal -0.130526192220052 -0.9914448613738105 -1.1498442966011992e-17
  outer loop
    vertex -0.3943000000000001 -1.947339000965041 12.200000000000001
    vertex 0.005699999999999544 -1.9999999999999991 15.0
    vertex -0.3943000000000001 -1.947339000965041 15.0
  endloop
endfacet
facet normal -0.130526192220052 -0.9914448613738105 -1.1498442966011992e-17
  outer loop
    vertex -0.3943000000000001 -1.947339000965041 15.0
    vertex 0.005699999999999544 -1.9999999999999991 15.0
    vertex -0.2942999999999999 -1.9605042507237807 15.0
  endloop
endfacet
facet normal -0.130526192220052 -0.9914448613738105 -1.1498442966011992e-17
  outer loop
    vertex 0.005699999999999544 -1.9999999999999991 12.200000000000001
    vertex -0.511938090205043 -1.9318516525781353 0.0
    vertex 0.005699999999999544 -1.9999999999999991 0.0
  endloop
endfacet
facet normal -0.130526192220052 -0.9914448613738105 -1.1498442966011992e-17
  outer loop
    vertex -0.511938090205043 -1.9318516525781353 0.0
    vertex 0.005699999999999544 -1.9999999999999991 12.200000000000001
    vertex -0.511938090205043 -1.9318516525781353 12.200000000000001
  endloop
endfacet
facet normal -0.130526192220052 -0.9914448613738105 -1.1498442966011992e-17
  outer loop
    vertex -0.511938090205043 -1.9318516525781353 12.200000000000001
    vertex 0.005699999999999544 -1.9999999999999991 12.200000000000001
    vertex -0.3943000000000001 -1.947339000965041 12.200000000000001
  endloop
endfacet
facet normal -0.9238795325112871 -0.38268343236508934 -0.0
  outer loop
    vertex -1.9261516525781364 -0.5176380902050399 12.200000000000001
    vertex -1.7263508075688774 -0.9999999999999987 0.0
    vertex -1.7263508075688774 -0.9999999999999987 12.200000000000001
  endloop
endfacet
facet normal -0.9238795325112871 -0.38268343236508934 -0.0
  outer loop
    vertex -1.7263508075688774 -0.9999999999999987 0.0
    vertex -1.9261516525781364 -0.5176380902050399 12.200000000000001
    vertex -1.9261516525781364 -0.5176380902050399 0.0
  endloop
endfacet
facet normal -0.0 -0.0 1.0
  outer loop
    vertex 1.737750807568861 -1.0000000000000007 4.999999999999998
    vertex 1.4199135623730799 1.4142135623730951 4.999999999999998
    vertex 1.4199135623730799 -1.4142135623730951 4.999999999999998
  endloop
endfacet
facet normal -0.0 -0.0 1.0
  outer loop
    vertex 1.4199135623730799 1.4142135623730951 4.999999999999998
    vertex 1.737750807568861 -1.0000000000000007 4.999999999999998
    vertex 1.7377508075688624 0.9999999999999999 4.999999999999998
  endloop
endfacet
facet normal -0.0 -0.0 1.0
  outer loop
    vertex 1.7377508075688624 0.9999999999999999 4.999999999999998
    vertex 1.737750807568861 -1.0000000000000007 4.999999999999998
    vertex 1.9375516525781211 -0.5176380902050429 4.999999999999998
  endloop
endfacet
facet normal -0.0 -0.0 1.0
  outer loop
    vertex 1.7377508075688624 0.9999999999999999 4.999999999999998
    vertex 1.9375516525781211 -0.5176380902050429 4.999999999999998
    vertex 1.9375516525781211 0.5176380902050417 4.999999999999998
  endloop
endfacet
facet normal -0.0 -0.0 1.0
  outer loop
    vertex 1.9375516525781211 0.5176380902050417 4.999999999999998
    vertex 1.9375516525781211 -0.5176380902050429 4.999999999999998
    vertex 2.0056999999999845 3.524958103184872e-16 4.999999999999998
  endloop
endfacet
facet normal 1.0 -0.0 0.0
  outer loop
    vertex 1.4199135623730799 1.4142135623730951 4.999999999999998
    vertex 1.4199135623730799 -1.4142135623730951 12.199999999999992
    vertex 1.4199135623730799 -1.4142135623730951 4.999999999999998
  endloop
endfacet
facet normal 1.0 -0.0 0.0
  outer loop
    vertex 1.4199135623730799 -1.4142135623730951 12.199999999999992
    vertex 1.4199135623730799 1.4142135623730951 4.999999999999998
    vertex 1.4199135623730799 1.4142135623730951 12.199999999999992
  endloop
endfacet
endsolid pin
